<!-- Generator: Adobe Illustrator 21.0.2, SVG Export Plug-In  -->
<svg version="1.1"
	 xmlns="http://www.w3.org/2000/svg" xmlns:xlink="http://www.w3.org/1999/xlink" xmlns:a="http://ns.adobe.com/AdobeSVGViewerExtensions/3.0/"
	 x="0px" y="0px" width="465.787px" height="238.481px" viewBox="0 0 465.787 238.481"
	 style="enable-background:new 0 0 465.787 238.481;" xml:space="preserve">
<style type="text/css">
	.st0{fill:#FFFFFF;stroke:#000000;stroke-width:9;stroke-miterlimit:10;}
	.st1{fill:none;}
	.st2{font-family:'Lora-Regular';}
	.st3{font-size:137.6887px;}
	.st4{letter-spacing:-1;}
</style>
<defs>
</defs>
<ellipse class="st0" cx="232.894" cy="119.241" rx="228.394" ry="114.741"/>
<g>
	<rect x="92.277" y="64.38" class="st1" width="281.234" height="109.243"/>
	<path d="M171.998,101.003c-0.093-5.415-0.644-9.913-1.652-13.493c-1.011-3.58-2.777-6.265-5.301-8.055
		c-2.525-1.79-6.175-2.638-10.946-2.547h-11.703l-0.138,75.04c0,2.479-0.024,4.612-0.069,6.402c-0.047,1.79-0.161,3.283-0.344,4.475
		c1.927-0.09,3.831-0.183,5.714-0.275c1.88-0.09,3.786-0.183,5.714-0.275v6.059h-32.356v-4.544c3.487-0.183,5.852-1.009,7.091-2.479
		c1.239-1.467,1.928-3.464,2.065-5.989c0.138-2.523,0.206-5.346,0.206-8.468l0.138-69.808l-14.182,0.137
		c-5.783,0-9.868,1.928-12.255,5.783c-2.388,3.855-3.579,9.868-3.579,18.037h-5.095l0.826-29.052h80.272l0.826,29.052H171.998z"/>
	<path d="M235.748,170.536c-8.722,0-16.202-1.47-22.443-4.406c-6.243-2.937-11.313-6.86-15.214-11.772
		c-3.903-4.909-6.771-10.348-8.605-16.316c-1.838-5.965-2.754-11.931-2.754-17.899c0-5.782,0.964-11.635,2.892-17.555
		c1.927-5.921,4.888-11.359,8.881-16.316c3.992-4.957,8.994-8.95,15.008-11.979c6.011-3.029,13.057-4.544,21.135-4.544
		c8.444,0,15.742,1.515,21.893,4.544c6.148,3.028,11.222,7.046,15.215,12.048c3.993,5.004,6.975,10.442,8.95,16.315
		c1.973,5.876,2.96,11.704,2.96,17.486c0,5.693-0.964,11.497-2.892,17.418s-4.888,11.383-8.881,16.385
		c-3.993,5.004-8.974,9.019-14.939,12.048C250.984,169.021,243.917,170.536,235.748,170.536z M236.023,164.891
		c5.69,0,10.647-1.216,14.871-3.648c4.221-2.432,7.731-5.69,10.533-9.776c2.799-4.083,4.909-8.627,6.333-13.631
		c1.422-5.002,2.135-10.027,2.135-15.077c0-5.69-0.781-11.335-2.341-16.936c-1.562-5.598-3.855-10.692-6.885-15.283
		c-3.029-4.589-6.771-8.283-11.222-11.084c-4.453-2.799-9.524-4.199-15.215-4.199c-5.692,0-10.671,1.239-14.938,3.717
		c-4.269,2.479-7.804,5.762-10.603,9.845c-2.801,4.086-4.911,8.63-6.334,13.632c-1.424,5.004-2.134,10.074-2.134,15.214
		c0,5.05,0.71,10.327,2.134,15.835c1.423,5.507,3.602,10.649,6.541,15.421c2.937,4.773,6.654,8.629,11.152,11.565
		C224.548,163.424,229.873,164.891,236.023,164.891z"/>
	<path d="M296.056,163.789c3.487-0.183,5.873-0.985,7.159-2.409c1.284-1.422,1.997-3.396,2.135-5.921
		c0.138-2.523,0.206-5.392,0.206-8.605V87.372c0-1.835,0.045-3.602,0.138-5.301c0.091-1.697,0.183-3.236,0.275-4.613
		c-1.652,0.093-3.305,0.186-4.957,0.275c-1.652,0.093-3.304,0.186-4.956,0.275v-6.058c4.864-0.091,9.866-0.16,15.008-0.207
		c5.14-0.045,10.372-0.069,15.696-0.069c8.902,0,16.385,1.011,22.443,3.029c6.059,2.02,10.692,5.004,13.906,8.949
		c3.212,3.948,4.957,8.859,5.232,14.732c0.183,3.58-0.344,7.321-1.583,11.222c-1.239,3.903-3.535,7.573-6.885,11.016
		c-3.352,3.442-8.055,6.22-14.113,8.33c-6.059,2.112-13.816,3.167-23.27,3.167c-0.367,0-1.056,0-2.065,0
		c-1.011,0-1.975-0.045-2.891-0.138v19.965c0,2.479-0.024,4.612-0.069,6.402c-0.047,1.79-0.161,3.283-0.344,4.475
		c1.467-0.09,2.891-0.183,4.268-0.275c1.377-0.09,2.775-0.159,4.2-0.206c1.422-0.045,2.822-0.114,4.199-0.207v6.196h-33.733V163.789
		z M317.536,126.338c1.742,0.186,3.235,0.299,4.475,0.345c1.239,0.047,2.729,0.068,4.475,0.068c5.232,0,10.004-1.032,14.319-3.098
		c4.313-2.065,7.756-5.026,10.327-8.881c2.568-3.855,3.855-8.444,3.855-13.77c0-4.313-0.688-8.007-2.065-11.084
		c-1.377-3.074-3.328-5.553-5.852-7.435c-2.526-1.881-5.531-3.258-9.019-4.131c-3.49-0.871-7.346-1.308-11.566-1.308
		c-3.214,0-5.438,0.688-6.678,2.064s-1.928,3.283-2.065,5.715c-0.138,2.433-0.206,5.301-0.206,8.605V126.338z"/>
</g>
</svg>